<svg xmlns="http://www.w3.org/2000/svg" xmlns:xlink="http://www.w3.org/1999/xlink" width="1240.5" height="260.1000061035156"><g><text transform="translate(620.25, 20)" style="font-family: sans-serif; fill: rgb(59, 59, 59); font-size: 0.85rem; font-weight: bold; text-anchor: middle;"><title>Deaths From Neoplasms (Tumors or Abnormal Growths) </title><tspan x="0" dy="0em">Deaths From Neoplasms (Tumors or Abnormal Growths)</tspan></text></g><g transform="translate(10, 25)"><svg><svg xmlns="http://www.w3.org/2000/svg" height="193.10000610351562" width="1220.5"><g transform="translate(0)"><svg xmlns="http://www.w3.org/2000/svg" xmlns:xlink="http://www.w3.org/1999/xlink" width="1230" height="193.10000610351562" class="dc-async-element"><g class="x axis" transform="translate(0, 170)" fill="none" font-size="10" font-family="sans-serif" text-anchor="middle"><path class="domain" stroke="#999" d="M0,0.5H1220.5" part="x-axis" transform="translate(0, 0)"/><g class="tick" opacity="1" transform="translate(88.97288237981617,0)"><line stroke="#999" y2="6" stroke-width="0.5" part="x-axis-tick"/><text fill="currentColor" y="9" dy="0.71em" part="x-axis-text">2000</text></g><g class="tick" opacity="1" transform="translate(371.9789061279827,0)"><line stroke="#999" y2="6" stroke-width="0.5" part="x-axis-tick"/><text fill="currentColor" y="9" dy="0.71em" part="x-axis-text">2005</text></g><g class="tick" opacity="1" transform="translate(654.830027837973,0)"><line stroke="#999" y2="6" stroke-width="0.5" part="x-axis-tick"/><text fill="currentColor" y="9" dy="0.71em" part="x-axis-text">2010</text></g><g class="tick" opacity="1" transform="translate(937.6811495479633,0)"><line stroke="#999" y2="6" stroke-width="0.5" part="x-axis-tick"/><text fill="currentColor" y="9" dy="0.71em" part="x-axis-text">2015</text></g></g><g class="y axis" transform="translate(1220, 0)" fill="none" font-size="10" font-family="sans-serif" text-anchor="end"><g class="tick" opacity="1" transform="translate(0,170.5)"><line stroke="currentColor" x2="-1220" class="grid-line" part="y-axis-tick" style="stroke: rgb(153, 153, 153); stroke-width: 0.5; stroke-opacity: 0.5; stroke-dasharray: 2, 2;"/><text fill="currentColor" x="-1220" dy="-4" class="tick-label" part="y-axis-text" style="fill: rgb(43, 41, 41); shape-rendering: crispedges; font-family: Roboto;" transform="translate(21.9013671875, 0)">0</text></g><g class="tick" opacity="1" transform="translate(0,145.50000000000003)"><line stroke="currentColor" x2="-1220" class="grid-line" part="y-axis-tick" style="stroke: rgb(153, 153, 153); stroke-width: 0.5; stroke-opacity: 0.5; stroke-dasharray: 2, 2;"/><text fill="currentColor" x="-1220" dy="-4" class="tick-label" part="y-axis-text" style="fill: rgb(43, 41, 41); shape-rendering: crispedges; font-family: Roboto;" transform="translate(21.9013671875, 0)">200</text></g><g class="tick" opacity="1" transform="translate(0,120.50000000000001)"><line stroke="currentColor" x2="-1220" class="grid-line" part="y-axis-tick" style="stroke: rgb(153, 153, 153); stroke-width: 0.5; stroke-opacity: 0.5; stroke-dasharray: 2, 2;"/><text fill="currentColor" x="-1220" dy="-4" class="tick-label" part="y-axis-text" style="fill: rgb(43, 41, 41); shape-rendering: crispedges; font-family: Roboto;" transform="translate(21.9013671875, 0)">400</text></g><g class="tick" opacity="1" transform="translate(0,95.5)"><line stroke="currentColor" x2="-1220" class="grid-line" part="y-axis-tick" style="stroke: rgb(153, 153, 153); stroke-width: 0.5; stroke-opacity: 0.5; stroke-dasharray: 2, 2;"/><text fill="currentColor" x="-1220" dy="-4" class="tick-label" part="y-axis-text" style="fill: rgb(43, 41, 41); shape-rendering: crispedges; font-family: Roboto;" transform="translate(21.9013671875, 0)">600</text></g><g class="tick" opacity="1" transform="translate(0,70.5)"><line stroke="currentColor" x2="-1220" class="grid-line" part="y-axis-tick" style="stroke: rgb(153, 153, 153); stroke-width: 0.5; stroke-opacity: 0.5; stroke-dasharray: 2, 2;"/><text fill="currentColor" x="-1220" dy="-4" class="tick-label" part="y-axis-text" style="fill: rgb(43, 41, 41); shape-rendering: crispedges; font-family: Roboto;" transform="translate(21.9013671875, 0)">800</text></g><g class="tick" opacity="1" transform="translate(0,45.5)"><line stroke="currentColor" x2="-1220" class="grid-line" part="y-axis-tick" style="stroke: rgb(153, 153, 153); stroke-width: 0.5; stroke-opacity: 0.5; stroke-dasharray: 2, 2;"/><text fill="currentColor" x="-1220" dy="-4" class="tick-label" part="y-axis-text" style="fill: rgb(43, 41, 41); shape-rendering: crispedges; font-family: Roboto;" transform="translate(21.9013671875, 0)">1K</text></g><g class="tick" opacity="1" transform="translate(0,20.5)"><line stroke="currentColor" x2="-1220" class="grid-line" part="y-axis-tick" style="stroke: rgb(153, 153, 153); stroke-width: 0.5; stroke-opacity: 0.5; stroke-dasharray: 2, 2;"/><text fill="currentColor" x="-1220" dy="-4" class="tick-label" part="y-axis-text" style="fill: rgb(43, 41, 41); shape-rendering: crispedges; font-family: Roboto;" transform="translate(21.9013671875, 0)">1.2K</text></g></g><g class="highlight" style="opacity: 0;"><circle r="5" style="fill: rgb(147, 0, 0); stroke: rgb(255, 255, 255); opacity: 1;" transform="translate(201.67400102876468,103.625)"/><circle r="5" style="fill: rgb(194, 9, 5); stroke: rgb(255, 255, 255); opacity: 1;" transform="translate(201.67400102876468,88.5)"/><circle r="5" style="fill: rgb(228, 61, 37); stroke: rgb(255, 255, 255); opacity: 1;" transform="translate(201.67400102876468,130.25)"/><circle r="5" style="fill: rgb(246, 128, 75); stroke: rgb(255, 255, 255); opacity: 0;"/><circle r="5" style="fill: rgb(252, 178, 103); stroke: rgb(255, 255, 255); opacity: 1;" transform="translate(201.67400102876468,153.375)"/><circle r="5" style="fill: rgb(236, 209, 132); stroke: rgb(255, 255, 255); opacity: 1;" transform="translate(201.67400102876468,84.37500000000001)"/><circle r="5" style="fill: rgb(157, 202, 156); stroke: rgb(255, 255, 255); opacity: 1;" transform="translate(201.67400102876468,75.375)"/><circle r="5" style="fill: rgb(83, 167, 175); stroke: rgb(255, 255, 255); opacity: 1;" transform="translate(201.67400102876468,125.50000000000001)"/><circle r="5" style="fill: rgb(67, 123, 179); stroke: rgb(255, 255, 255); opacity: 1;" transform="translate(201.67400102876468,130.5)"/><circle r="5" style="fill: rgb(94, 79, 162); stroke: rgb(255, 255, 255); opacity: 1;" transform="translate(201.67400102876468,137.75000000000003)"/><line x1="0" y1="0" x2="0" y2="170" style="stroke: rgb(59, 59, 59); stroke-opacity: 0.5;" transform="translate(201.67400102876468,0)"/></g><g class="chart-area"><path class="line chart-data-object legend-index-0" d="M1220,96.125L1163.4607560656373,88.5L1106.9215121312743,95.375L1050.3822681969118,97.125L993.6881222243725,95.75L937.1488782900097,92.49999999999999L880.6096343556469,96.87499999999999L824.0703904212842,96.375L767.3762444487452,97.62500000000001L710.8370005143823,101.74999999999999L654.2977565800196,101.00000000000001L597.7585126456568,104.87500000000001L541.0643666731177,102.25L484.5251227387549,105.25L427.9858788043921,107.625L371.44663487002936,107.74999999999999L314.75248889749025,113.49999999999999L258.2132449631274,112.25L201.67400102876468,103.625L145.1347570944019,108L88.44061112186277,113L31.9013671875,117" part="series series-variable-Adams County" style="fill: none; stroke-width: 2.5px; stroke: rgb(147, 0, 0);"/><path class="line chart-data-object legend-index-1" d="M1220,63.37500000000001L1163.4607560656373,66.50000000000001L1106.9215121312743,69.625L1050.3822681969118,67.875L993.6881222243725,65.25L937.1488782900097,69.37500000000001L880.6096343556469,73.125L824.0703904212842,80.25L767.3762444487452,73.125L710.8370005143823,76.125L654.2977565800196,71.875L597.7585126456568,78.25L541.0643666731177,83.75000000000001L484.5251227387549,82.75L427.9858788043921,86.125L371.44663487002936,91.5L314.75248889749025,92L258.2132449631274,87.125L201.67400102876468,88.5L145.1347570944019,87.25L88.44061112186277,96L31.9013671875,94.375" part="series series-variable-Arapahoe County" style="fill: none; stroke-width: 2.5px; stroke: rgb(194, 9, 5);"/><path class="line chart-data-object legend-index-2" d="M1220,116.25L1163.4607560656373,116.625L1106.9215121312743,114.875L1050.3822681969118,123L993.6881222243725,118.125L937.1488782900097,120.25L880.6096343556469,124.5L824.0703904212842,125.125L767.3762444487452,126.625L710.8370005143823,129.375L654.2977565800196,128.375L597.7585126456568,128.125L541.0643666731177,127.5L484.5251227387549,129.25L427.9858788043921,129.75L371.44663487002936,131.125L314.75248889749025,132L258.2132449631274,130L201.67400102876468,130.25L145.1347570944019,129.125L88.44061112186277,129L31.9013671875,131.625" part="series series-variable-Boulder County" style="fill: none; stroke-width: 2.5px; stroke: rgb(228, 61, 37);"/><path class="line chart-data-object legend-index-3" d="M1220,156.75L1163.4607560656373,160L1106.9215121312743,158.5L1050.3822681969118,160.25000000000003L993.6881222243725,159.62499999999997L937.1488782900097,158L880.6096343556469,159.25L824.0703904212842,159L767.3762444487452,158.87499999999997L710.8370005143823,160.25000000000003L654.2977565800196,160.625L597.7585126456568,161.125L541.0643666731177,161.5L484.5251227387549,162.25L427.9858788043921,163.125L371.44663487002936,163.875L314.75248889749025,164.5L258.2132449631274,164.625" part="series series-variable-Broomfield County" style="fill: none; stroke-width: 2.5px; stroke: rgb(246, 128, 75);"/><path class="line chart-data-object legend-index-4" d="M1220,120.875L1163.4607560656373,124.99999999999999L1106.9215121312743,126.625L1050.3822681969118,133.375L993.6881222243725,128.25L937.1488782900097,130.125L880.6096343556469,135.25L824.0703904212842,138.74999999999997L767.3762444487452,137.375L710.8370005143823,135.125L654.2977565800196,139.75L597.7585126456568,136.875L541.0643666731177,143.25L484.5251227387549,146.25L427.9858788043921,146.25L371.44663487002936,146.75L314.75248889749025,151.5L258.2132449631274,151.375L201.67400102876468,153.375L145.1347570944019,152.875L88.44061112186277,154.625L31.9013671875,157.625" part="series series-variable-Douglas County" style="fill: none; stroke-width: 2.5px; stroke: rgb(252, 178, 103);"/><path class="line chart-data-object legend-index-5" d="M1220,40.375L1163.4607560656373,45.74999999999999L1106.9215121312743,46.875L1050.3822681969118,45.875L993.6881222243725,48.375L937.1488782900097,63.5L880.6096343556469,64.875L824.0703904212842,63.12499999999999L767.3762444487452,62.375L710.8370005143823,68.25L654.2977565800196,72.875L597.7585126456568,67.75L541.0643666731177,80.875L484.5251227387549,71.375L427.9858788043921,72.75L371.44663487002936,77.875L314.75248889749025,80.375L258.2132449631274,83.5L201.67400102876468,84.37500000000001L145.1347570944019,85L88.44061112186277,88.87499999999999L31.9013671875,86.75" part="series series-variable-El Paso County" style="fill: none; stroke-width: 2.5px; stroke: rgb(236, 209, 132);"/><path class="line chart-data-object legend-index-6" d="M1220,54.99999999999999L1163.4607560656373,56.62499999999999L1106.9215121312743,56L1050.3822681969118,54.25000000000001L993.6881222243725,58.75L937.1488782900097,56.25L880.6096343556469,63.87499999999999L824.0703904212842,59.875L767.3762444487452,60.625L710.8370005143823,63.25L654.2977565800196,66.75L597.7585126456568,71L541.0643666731177,68.875L484.5251227387549,71.25L427.9858788043921,68.875L371.44663487002936,78.62500000000001L314.75248889749025,73.625L258.2132449631274,70L201.67400102876468,75.375L145.1347570944019,78.62500000000001L88.44061112186277,86.375L31.9013671875,80.5" part="series series-variable-Jefferson County" style="fill: none; stroke-width: 2.5px; stroke: rgb(157, 202, 156);"/><path class="line chart-data-object legend-index-7" d="M1220,105.75L1163.4607560656373,113.49999999999999L1106.9215121312743,109.25L1050.3822681969118,106.12500000000001L993.6881222243725,106.24999999999999L937.1488782900097,111.87500000000001L880.6096343556469,110.62500000000001L824.0703904212842,116.75L767.3762444487452,116L710.8370005143823,118.125L654.2977565800196,118.25000000000001L597.7585126456568,119.125L541.0643666731177,123.62500000000001L484.5251227387549,121.75L427.9858788043921,120.74999999999999L371.44663487002936,124.74999999999999L314.75248889749025,128.75L258.2132449631274,125.75000000000001L201.67400102876468,125.50000000000001L145.1347570944019,126.375L88.44061112186277,128.5L31.9013671875,127.62500000000001" part="series series-variable-Larimer County" style="fill: none; stroke-width: 2.5px; stroke: rgb(83, 167, 175);"/><path class="line chart-data-object legend-index-8" d="M1220,122L1163.4607560656373,126.375L1106.9215121312743,125.50000000000001L1050.3822681969118,126.75L993.6881222243725,129.25L937.1488782900097,131.875L880.6096343556469,127.5L824.0703904212842,127.99999999999999L767.3762444487452,127.62500000000001L710.8370005143823,132.625L654.2977565800196,131.375L597.7585126456568,128.875L541.0643666731177,128.25L484.5251227387549,128.875L427.9858788043921,131L371.44663487002936,133.625L314.75248889749025,133.75L258.2132449631274,130.5L201.67400102876468,130.5L145.1347570944019,136.62499999999997L88.44061112186277,131.875L31.9013671875,138.74999999999997" part="series series-variable-Pueblo County" style="fill: none; stroke-width: 2.5px; stroke: rgb(67, 123, 179);"/><path class="line chart-data-object legend-index-9" d="M1220,115.75L1163.4607560656373,120.125L1106.9215121312743,123.25L1050.3822681969118,117.62500000000001L993.6881222243725,123.75L937.1488782900097,124.37499999999999L880.6096343556469,122L824.0703904212842,126L767.3762444487452,133L710.8370005143823,129.25L654.2977565800196,128.75L597.7585126456568,127.62500000000001L541.0643666731177,132.375L484.5251227387549,136.5L427.9858788043921,135.75L371.44663487002936,133.75L314.75248889749025,134.75L258.2132449631274,137.5L201.67400102876468,137.75000000000003L145.1347570944019,140.875L88.44061112186277,140.25L31.9013671875,140.75" part="series series-variable-Weld County" style="fill: none; stroke-width: 2.5px; stroke: rgb(94, 79, 162);"/></g></svg></g></svg></svg></g><g transform="translate(10, 248.10000610351562)"><text style="fill: rgb(59, 59, 59); font-family: sans-serif; font-size: 0.7rem;"><title>Data from wonder.cdc.gov via Data Commons</title><tspan x="0" dy="0em">Data from wonder.cdc.gov via Data Commons</tspan></text></g></svg>