<svg xmlns="http://www.w3.org/2000/svg" xmlns:xlink="http://www.w3.org/1999/xlink" width="1240.5" height="255.10000610351562"><g><text transform="translate(620.25, 20)" style="font-family: sans-serif; fill: rgb(59, 59, 59); font-size: 0.85rem; font-weight: bold; text-anchor: middle;"><title>Deaths From Neoplasms (Tumors or Abnormal Growths) </title><tspan x="0" dy="0em">Deaths From Neoplasms (Tumors or Abnormal Growths)</tspan></text></g><g transform="translate(10, 25)"><svg><svg xmlns="http://www.w3.org/2000/svg" height="188.10000610351562" width="1220.5"><g transform="translate(0)"><svg xmlns="http://www.w3.org/2000/svg" xmlns:xlink="http://www.w3.org/1999/xlink" width="1230" height="188.10000610351562" class="dc-async-element"><g class="x axis" transform="translate(0, 170)" fill="none" font-size="10" font-family="sans-serif" text-anchor="middle"><path class="domain" stroke="#999" d="M0,0.5H1220.5" part="x-axis" transform="translate(0, 0)"/><g class="tick" opacity="1" transform="translate(88.97288237981617,0)"><line stroke="#999" y2="6" stroke-width="0.5" part="x-axis-tick"/><text fill="currentColor" y="9" dy="0.71em" part="x-axis-text">2000</text></g><g class="tick" opacity="1" transform="translate(371.9789061279827,0)"><line stroke="#999" y2="6" stroke-width="0.5" part="x-axis-tick"/><text fill="currentColor" y="9" dy="0.71em" part="x-axis-text">2005</text></g><g class="tick" opacity="1" transform="translate(654.830027837973,0)"><line stroke="#999" y2="6" stroke-width="0.5" part="x-axis-tick"/><text fill="currentColor" y="9" dy="0.71em" part="x-axis-text">2010</text></g><g class="tick" opacity="1" transform="translate(937.6811495479633,0)"><line stroke="#999" y2="6" stroke-width="0.5" part="x-axis-tick"/><text fill="currentColor" y="9" dy="0.71em" part="x-axis-text">2015</text></g></g><g class="y axis" transform="translate(1220, 0)" fill="none" font-size="10" font-family="sans-serif" text-anchor="end"><g class="tick" opacity="1" transform="translate(0,170.5)"><line stroke="currentColor" x2="-1220" class="grid-line" part="y-axis-tick" style="stroke: rgb(153, 153, 153); stroke-width: 0.5; stroke-opacity: 0.5; stroke-dasharray: 2, 2;"/><text fill="currentColor" x="-1220" dy="-4" class="tick-label" part="y-axis-text" style="fill: rgb(43, 41, 41); shape-rendering: crispedges; font-family: Roboto;" transform="translate(21.9013671875, 0)">0</text></g><g class="tick" opacity="1" transform="translate(0,133)"><line stroke="currentColor" x2="-1220" class="grid-line" part="y-axis-tick" style="stroke: rgb(153, 153, 153); stroke-width: 0.5; stroke-opacity: 0.5; stroke-dasharray: 2, 2;"/><text fill="currentColor" x="-1220" dy="-4" class="tick-label" part="y-axis-text" style="fill: rgb(43, 41, 41); shape-rendering: crispedges; font-family: Roboto;" transform="translate(21.9013671875, 0)">500</text></g><g class="tick" opacity="1" transform="translate(0,95.5)"><line stroke="currentColor" x2="-1220" class="grid-line" part="y-axis-tick" style="stroke: rgb(153, 153, 153); stroke-width: 0.5; stroke-opacity: 0.5; stroke-dasharray: 2, 2;"/><text fill="currentColor" x="-1220" dy="-4" class="tick-label" part="y-axis-text" style="fill: rgb(43, 41, 41); shape-rendering: crispedges; font-family: Roboto;" transform="translate(21.9013671875, 0)">1K</text></g><g class="tick" opacity="1" transform="translate(0,58)"><line stroke="currentColor" x2="-1220" class="grid-line" part="y-axis-tick" style="stroke: rgb(153, 153, 153); stroke-width: 0.5; stroke-opacity: 0.5; stroke-dasharray: 2, 2;"/><text fill="currentColor" x="-1220" dy="-4" class="tick-label" part="y-axis-text" style="fill: rgb(43, 41, 41); shape-rendering: crispedges; font-family: Roboto;" transform="translate(21.9013671875, 0)">1.5K</text></g><g class="tick" opacity="1" transform="translate(0,20.5)"><line stroke="currentColor" x2="-1220" class="grid-line" part="y-axis-tick" style="stroke: rgb(153, 153, 153); stroke-width: 0.5; stroke-opacity: 0.5; stroke-dasharray: 2, 2;"/><text fill="currentColor" x="-1220" dy="-4" class="tick-label" part="y-axis-text" style="fill: rgb(43, 41, 41); shape-rendering: crispedges; font-family: Roboto;" transform="translate(21.9013671875, 0)">2K</text></g></g><g class="highlight" style="opacity: 0;"><circle r="5" style="fill: rgb(147, 0, 0); stroke: rgb(255, 255, 255); opacity: 1;" transform="translate(88.44061112186277,148.775)"/><circle r="5" style="fill: rgb(194, 9, 5); stroke: rgb(255, 255, 255); opacity: 1;" transform="translate(88.44061112186277,66.50000000000001)"/><circle r="5" style="fill: rgb(228, 61, 37); stroke: rgb(255, 255, 255); opacity: 1;" transform="translate(88.44061112186277,127.025)"/><circle r="5" style="fill: rgb(246, 128, 75); stroke: rgb(255, 255, 255); opacity: 1;" transform="translate(88.44061112186277,163.325)"/><circle r="5" style="fill: rgb(252, 178, 103); stroke: rgb(255, 255, 255); opacity: 1;" transform="translate(88.44061112186277,98.44999999999999)"/><circle r="5" style="fill: rgb(236, 209, 132); stroke: rgb(255, 255, 255); opacity: 1;" transform="translate(88.44061112186277,140.3)"/><circle r="5" style="fill: rgb(157, 202, 156); stroke: rgb(255, 255, 255); opacity: 1;" transform="translate(88.44061112186277,152.825)"/><circle r="5" style="fill: rgb(83, 167, 175); stroke: rgb(255, 255, 255); opacity: 1;" transform="translate(88.44061112186277,159.20000000000002)"/><circle r="5" style="fill: rgb(67, 123, 179); stroke: rgb(255, 255, 255); opacity: 1;" transform="translate(88.44061112186277,111.94999999999999)"/><circle r="5" style="fill: rgb(94, 79, 162); stroke: rgb(255, 255, 255); opacity: 1;" transform="translate(88.44061112186277,123.72500000000001)"/><line x1="0" y1="0" x2="0" y2="170" style="stroke: rgb(59, 59, 59); stroke-opacity: 0.5;" transform="translate(88.44061112186277,0)"/></g><g class="chart-area"><path class="line chart-data-object legend-index-0" d="M1220,149L1163.4607560656373,150.125L1106.9215121312743,150.8L1050.3822681969118,146.82500000000002L993.6881222243725,149.15L937.1488782900097,149.75L880.6096343556469,148.47500000000002L824.0703904212842,151.175L767.3762444487452,149.45000000000002L710.8370005143823,149.29999999999998L654.2977565800196,150.5L597.7585126456568,149.375L541.0643666731177,150.8L484.5251227387549,149.75L427.9858788043921,152L371.44663487002936,148.85L314.75248889749025,149.225L258.2132449631274,148.55L201.67400102876468,147.8L145.1347570944019,145.99999999999997L88.44061112186277,148.775L31.9013671875,151.92499999999998" part="series series-variable-Champaign County" style="fill: none; stroke-width: 2.5px; stroke: rgb(147, 0, 0); opacity: 1;"/><path class="line chart-data-object legend-index-1" d="M1220,55.849999999999994L1163.4607560656373,58.32499999999999L1106.9215121312743,66.125L1050.3822681969118,59.9L993.6881222243725,55.62500000000001L937.1488782900097,61.025L880.6096343556469,59.75L824.0703904212842,58.85L767.3762444487452,62.900000000000006L710.8370005143823,59.07499999999999L654.2977565800196,63.725L597.7585126456568,59.150000000000006L541.0643666731177,58.77499999999999L484.5251227387549,66.275L427.9858788043921,66.2L371.44663487002936,62.52499999999999L314.75248889749025,64.85000000000001L258.2132449631274,60.35L201.67400102876468,62.824999999999996L145.1347570944019,60.95L88.44061112186277,66.50000000000001L31.9013671875,64.4" part="series series-variable-DuPage County" style="fill: none; stroke-width: 2.5px; stroke: rgb(194, 9, 5); opacity: 1;"/><path class="line chart-data-object legend-index-2" d="M1220,107.45L1163.4607560656373,112.02499999999999L1106.9215121312743,112.775L1050.3822681969118,110.97500000000001L993.6881222243725,114.35000000000001L937.1488782900097,117.575L880.6096343556469,111.2L824.0703904212842,115.4L767.3762444487452,116.67500000000001L710.8370005143823,115.92499999999998L654.2977565800196,117.425L597.7585126456568,119.975L541.0643666731177,119.89999999999999L484.5251227387549,124.625L427.9858788043921,122.29999999999998L371.44663487002936,125.225L314.75248889749025,125.825L258.2132449631274,122.22500000000001L201.67400102876468,123.95000000000002L145.1347570944019,124.85000000000001L88.44061112186277,127.025L31.9013671875,128.67499999999998" part="series series-variable-Kane County" style="fill: none; stroke-width: 2.5px; stroke: rgb(228, 61, 37); opacity: 1;"/><path class="line chart-data-object legend-index-3" d="M1220,158L1163.4607560656373,157.475L1106.9215121312743,159.125L1050.3822681969118,159.275L993.6881222243725,159.275L937.1488782900097,158.45L880.6096343556469,159.42499999999998L824.0703904212842,159.20000000000002L767.3762444487452,159.65L710.8370005143823,160.4L654.2977565800196,160.85L597.7585126456568,161.82500000000002L541.0643666731177,163.025L484.5251227387549,161.45L427.9858788043921,162.5L371.44663487002936,162.5L314.75248889749025,161.75L258.2132449631274,163.775L201.67400102876468,163.7L145.1347570944019,163.175L88.44061112186277,163.325L31.9013671875,164.525" part="series series-variable-Kendall County" style="fill: none; stroke-width: 2.5px; stroke: rgb(246, 128, 75); opacity: 1;"/><path class="line chart-data-object legend-index-4" d="M1220,86.6L1163.4607560656373,87.05L1106.9215121312743,83.82499999999999L1050.3822681969118,82.55L993.6881222243725,81.95L937.1488782900097,87.725L880.6096343556469,92L824.0703904212842,91.55000000000001L767.3762444487452,84.425L710.8370005143823,94.10000000000001L654.2977565800196,94.025L597.7585126456568,93.8L541.0643666731177,92.45L484.5251227387549,91.025L427.9858788043921,93.72500000000001L371.44663487002936,94.625L314.75248889749025,97.02500000000002L258.2132449631274,96.125L201.67400102876468,97.02500000000002L145.1347570944019,100.02499999999999L88.44061112186277,98.44999999999999L31.9013671875,97.325" part="series series-variable-Lake County" style="fill: none; stroke-width: 2.5px; stroke: rgb(252, 178, 103); opacity: 1;"/><path class="line chart-data-object legend-index-5" d="M1220,127.325L1163.4607560656373,130.32500000000002L1106.9215121312743,129.575L1050.3822681969118,129.65L993.6881222243725,130.17499999999998L937.1488782900097,133.85L880.6096343556469,132.95L824.0703904212842,131.75L767.3762444487452,130.25L710.8370005143823,133.1L654.2977565800196,131.975L597.7585126456568,134.6L541.0643666731177,135.125L484.5251227387549,133.025L427.9858788043921,132.425L371.44663487002936,137.9L314.75248889749025,136.92499999999998L258.2132449631274,136.55L201.67400102876468,137.825L145.1347570944019,139.25L88.44061112186277,140.3L31.9013671875,140.67499999999998" part="series series-variable-McHenry County" style="fill: none; stroke-width: 2.5px; stroke: rgb(236, 209, 132); opacity: 1;"/><path class="line chart-data-object legend-index-6" d="M1220,150.57500000000002L1163.4607560656373,149.75L1106.9215121312743,149.825L1050.3822681969118,149.52499999999998L993.6881222243725,151.55L937.1488782900097,149.9L880.6096343556469,149.9L824.0703904212842,150.35L767.3762444487452,150.725L710.8370005143823,151.55L654.2977565800196,148.4L597.7585126456568,151.62499999999997L541.0643666731177,150.425L484.5251227387549,151.475L427.9858788043921,150.725L371.44663487002936,153.575L314.75248889749025,153.125L258.2132449631274,150.275L201.67400102876468,151.7L145.1347570944019,153.04999999999998L88.44061112186277,152.825L31.9013671875,152.975" part="series series-variable-McLean County" style="fill: none; stroke-width: 2.5px; stroke: rgb(157, 202, 156); opacity: 1;"/><path class="line chart-data-object legend-index-7" d="M1220,158.525L1163.4607560656373,159.42499999999998L1106.9215121312743,158.82500000000002L1050.3822681969118,160.1L993.6881222243725,158.15L937.1488782900097,159.42499999999998L880.6096343556469,160.175L824.0703904212842,158.525L767.3762444487452,157.85000000000002L710.8370005143823,157.85000000000002L654.2977565800196,159.42499999999998L597.7585126456568,158L541.0643666731177,159.35L484.5251227387549,160.025L427.9858788043921,158.60000000000002L371.44663487002936,158.225L314.75248889749025,159.8L258.2132449631274,158.075L201.67400102876468,160.025L145.1347570944019,157.475L88.44061112186277,159.20000000000002L31.9013671875,160.25000000000003" part="series series-variable-Whiteside County" style="fill: none; stroke-width: 2.5px; stroke: rgb(83, 167, 175); opacity: 1;"/><path class="line chart-data-object legend-index-8" d="M1220,83.525L1163.4607560656373,83.225L1106.9215121312743,84.5L1050.3822681969118,87.94999999999999L993.6881222243725,89.97500000000001L937.1488782900097,91.47500000000001L880.6096343556469,90.425L824.0703904212842,94.10000000000001L767.3762444487452,90.05L710.8370005143823,96.35L654.2977565800196,97.17499999999998L597.7585126456568,94.85L541.0643666731177,96.27499999999999L484.5251227387549,100.92500000000001L427.9858788043921,101.60000000000001L371.44663487002936,104.07499999999999L314.75248889749025,103.77499999999999L258.2132449631274,110.97500000000001L201.67400102876468,113.45L145.1347570944019,112.47500000000001L88.44061112186277,111.94999999999999L31.9013671875,114.875" part="series series-variable-Will County" style="fill: none; stroke-width: 2.5px; stroke: rgb(67, 123, 179); opacity: 1;"/><path class="line chart-data-object legend-index-9" d="M1220,121.85000000000001L1163.4607560656373,124.25L1106.9215121312743,122.89999999999999L1050.3822681969118,120.49999999999999L993.6881222243725,121.09999999999998L937.1488782900097,118.25000000000001L880.6096343556469,117.8L824.0703904212842,119.225L767.3762444487452,119.525L710.8370005143823,116.52499999999999L654.2977565800196,125.525L597.7585126456568,122.52499999999999L541.0643666731177,120.575L484.5251227387549,126.95L427.9858788043921,126.125L371.44663487002936,122.375L314.75248889749025,125.375L258.2132449631274,127.7L201.67400102876468,125.825L145.1347570944019,123.425L88.44061112186277,123.72500000000001L31.9013671875,127.47500000000001" part="series series-variable-Winnebago County" style="fill: none; stroke-width: 2.5px; stroke: rgb(94, 79, 162); opacity: 1;"/></g></svg></g></svg></svg></g><g transform="translate(10, 243.10000610351562)"><text style="fill: rgb(59, 59, 59); font-family: sans-serif; font-size: 0.7rem;"><title>Data from wonder.cdc.gov via Data Commons</title><tspan x="0" dy="0em">Data from wonder.cdc.gov via Data Commons</tspan></text></g></svg>