<svg xmlns="http://www.w3.org/2000/svg" xmlns:xlink="http://www.w3.org/1999/xlink" width="1240.5" height="255.10000610351562"><g><text transform="translate(620.25, 20)" style="font-family: sans-serif; fill: rgb(59, 59, 59); font-size: 0.85rem; font-weight: bold; text-anchor: middle;"><title>Deaths From Neoplasms (Tumors or Abnormal Growths) </title><tspan x="0" dy="0em">Deaths From Neoplasms (Tumors or Abnormal Growths)</tspan></text></g><g transform="translate(10, 25)"><svg><svg xmlns="http://www.w3.org/2000/svg" height="188.10000610351562" width="1220.5"><g transform="translate(0)"><svg xmlns="http://www.w3.org/2000/svg" xmlns:xlink="http://www.w3.org/1999/xlink" width="1230" height="188.10000610351562" class="dc-async-element"><g class="x axis" transform="translate(0, 170)" fill="none" font-size="10" font-family="sans-serif" text-anchor="middle"><path class="domain" stroke="#999" d="M0,0.5H1220.5" part="x-axis" transform="translate(0, 0)"/><g class="tick" opacity="1" transform="translate(84.42208258849752,0)"><line stroke="#999" y2="6" stroke-width="0.5" part="x-axis-tick"/><text fill="currentColor" y="9" dy="0.71em" part="x-axis-text">2000</text></g><g class="tick" opacity="1" transform="translate(368.56630597303143,0)"><line stroke="#999" y2="6" stroke-width="0.5" part="x-axis-tick"/><text fill="currentColor" y="9" dy="0.71em" part="x-axis-text">2005</text></g><g class="tick" opacity="1" transform="translate(652.5550043310823,0)"><line stroke="#999" y2="6" stroke-width="0.5" part="x-axis-tick"/><text fill="currentColor" y="9" dy="0.71em" part="x-axis-text">2010</text></g><g class="tick" opacity="1" transform="translate(936.5437026891332,0)"><line stroke="#999" y2="6" stroke-width="0.5" part="x-axis-tick"/><text fill="currentColor" y="9" dy="0.71em" part="x-axis-text">2015</text></g></g><g class="y axis" transform="translate(1220, 0)" fill="none" font-size="10" font-family="sans-serif" text-anchor="end"><g class="tick" opacity="1" transform="translate(0,170.5)"><line stroke="currentColor" x2="-1220" class="grid-line" part="y-axis-tick" style="stroke: rgb(153, 153, 153); stroke-width: 0.5; stroke-opacity: 0.5; stroke-dasharray: 2, 2;"/><text fill="currentColor" x="-1220" dy="-4" class="tick-label" part="y-axis-text" style="fill: rgb(43, 41, 41); shape-rendering: crispedges; font-family: Roboto;" transform="translate(17.123046875, 0)">0</text></g><g class="tick" opacity="1" transform="translate(0,140.5)"><line stroke="currentColor" x2="-1220" class="grid-line" part="y-axis-tick" style="stroke: rgb(153, 153, 153); stroke-width: 0.5; stroke-opacity: 0.5; stroke-dasharray: 2, 2;"/><text fill="currentColor" x="-1220" dy="-4" class="tick-label" part="y-axis-text" style="fill: rgb(43, 41, 41); shape-rendering: crispedges; font-family: Roboto;" transform="translate(17.123046875, 0)">100</text></g><g class="tick" opacity="1" transform="translate(0,110.5)"><line stroke="currentColor" x2="-1220" class="grid-line" part="y-axis-tick" style="stroke: rgb(153, 153, 153); stroke-width: 0.5; stroke-opacity: 0.5; stroke-dasharray: 2, 2;"/><text fill="currentColor" x="-1220" dy="-4" class="tick-label" part="y-axis-text" style="fill: rgb(43, 41, 41); shape-rendering: crispedges; font-family: Roboto;" transform="translate(17.123046875, 0)">200</text></g><g class="tick" opacity="1" transform="translate(0,80.5)"><line stroke="currentColor" x2="-1220" class="grid-line" part="y-axis-tick" style="stroke: rgb(153, 153, 153); stroke-width: 0.5; stroke-opacity: 0.5; stroke-dasharray: 2, 2;"/><text fill="currentColor" x="-1220" dy="-4" class="tick-label" part="y-axis-text" style="fill: rgb(43, 41, 41); shape-rendering: crispedges; font-family: Roboto;" transform="translate(17.123046875, 0)">300</text></g><g class="tick" opacity="1" transform="translate(0,50.49999999999999)"><line stroke="currentColor" x2="-1220" class="grid-line" part="y-axis-tick" style="stroke: rgb(153, 153, 153); stroke-width: 0.5; stroke-opacity: 0.5; stroke-dasharray: 2, 2;"/><text fill="currentColor" x="-1220" dy="-4" class="tick-label" part="y-axis-text" style="fill: rgb(43, 41, 41); shape-rendering: crispedges; font-family: Roboto;" transform="translate(17.123046875, 0)">400</text></g><g class="tick" opacity="1" transform="translate(0,20.5)"><line stroke="currentColor" x2="-1220" class="grid-line" part="y-axis-tick" style="stroke: rgb(153, 153, 153); stroke-width: 0.5; stroke-opacity: 0.5; stroke-dasharray: 2, 2;"/><text fill="currentColor" x="-1220" dy="-4" class="tick-label" part="y-axis-text" style="fill: rgb(43, 41, 41); shape-rendering: crispedges; font-family: Roboto;" transform="translate(17.123046875, 0)">500</text></g></g><g class="highlight" style="opacity: 0;"><circle r="5" style="fill: rgb(147, 0, 0); stroke: rgb(255, 255, 255); opacity: 1;" transform="translate(140.81184123411018,151.39999999999998)"/><circle r="5" style="fill: rgb(194, 9, 5); stroke: rgb(255, 255, 255); opacity: 1;" transform="translate(140.81184123411018,77)"/><circle r="5" style="fill: rgb(228, 61, 37); stroke: rgb(255, 255, 255); opacity: 1;" transform="translate(140.81184123411018,97.7)"/><circle r="5" style="fill: rgb(246, 128, 75); stroke: rgb(255, 255, 255); opacity: 1;" transform="translate(140.81184123411018,143.9)"/><circle r="5" style="fill: rgb(252, 178, 103); stroke: rgb(255, 255, 255); opacity: 1;" transform="translate(140.81184123411018,119.59999999999998)"/><circle r="5" style="fill: rgb(236, 209, 132); stroke: rgb(255, 255, 255); opacity: 1;" transform="translate(140.81184123411018,107.90000000000002)"/><circle r="5" style="fill: rgb(157, 202, 156); stroke: rgb(255, 255, 255); opacity: 1;" transform="translate(140.81184123411018,129.8)"/><circle r="5" style="fill: rgb(83, 167, 175); stroke: rgb(255, 255, 255); opacity: 1;" transform="translate(140.81184123411018,86)"/><circle r="5" style="fill: rgb(67, 123, 179); stroke: rgb(255, 255, 255); opacity: 1;" transform="translate(140.81184123411018,139.7)"/><circle r="5" style="fill: rgb(94, 79, 162); stroke: rgb(255, 255, 255); opacity: 1;" transform="translate(140.81184123411018,141.50000000000003)"/><line x1="0" y1="0" x2="0" y2="170" style="stroke: rgb(59, 59, 59); stroke-opacity: 0.5;" transform="translate(140.81184123411018,0)"/></g><g class="chart-area"><path class="line chart-data-object legend-index-0" d="M1220,145.99999999999997L1163.2333653336864,147.2L1106.4667306673728,151.7L1049.7000960010594,152.3L992.7779363082626,147.2L936.0113016419491,146.29999999999998L879.2446669756355,147.2L822.4780323093221,152.6L765.5558726165254,151.39999999999998L708.7892379502118,149.9L652.0226032838983,150.2L595.2559686175848,151.10000000000002L538.3338089247882,151.39999999999998L481.56717425847455,151.10000000000002L424.80053959216104,152L368.0339049258475,151.39999999999998L311.1117452330509,149.6L254.34511056673728,150.8L197.57847590042374,150.2L140.81184123411018,151.39999999999998L83.88968154131356,148.7L27.123046875,160.4" part="series series-variable-Adams County" style="fill: none; stroke-width: 2.5px; stroke: rgb(147, 0, 0); opacity: 1;"/><path class="line chart-data-object legend-index-1" d="M1220,59L1163.2333653336864,60.8L1106.4667306673728,59.3L1049.7000960010594,60.2L992.7779363082626,59.6L936.0113016419491,68.6L879.2446669756355,55.4L822.4780323093221,61.7L765.5558726165254,70.1L708.7892379502118,58.400000000000006L652.0226032838983,64.4L595.2559686175848,71L538.3338089247882,66.80000000000001L481.56717425847455,78.8L424.80053959216104,68.3L368.0339049258475,79.4L311.1117452330509,71L254.34511056673728,73.7L197.57847590042374,75.2L140.81184123411018,77L83.88968154131356,72.8L27.123046875,77.9" part="series series-variable-Elkhart County" style="fill: none; stroke-width: 2.5px; stroke: rgb(194, 9, 5); opacity: 1;"/><path class="line chart-data-object legend-index-2" d="M1220,38.3L1163.2333653336864,43.400000000000006L1106.4667306673728,50.29999999999999L1049.7000960010594,53.89999999999999L992.7779363082626,59.6L936.0113016419491,68.89999999999999L879.2446669756355,51.8L822.4780323093221,78.5L765.5558726165254,67.1L708.7892379502118,68L652.0226032838983,70.69999999999999L595.2559686175848,75.5L538.3338089247882,79.69999999999999L481.56717425847455,85.69999999999999L424.80053959216104,85.4L368.0339049258475,95.60000000000001L311.1117452330509,91.69999999999999L254.34511056673728,107.90000000000002L197.57847590042374,97.7L140.81184123411018,97.7L83.88968154131356,104.9L27.123046875,111.5" part="series series-variable-Hamilton County" style="fill: none; stroke-width: 2.5px; stroke: rgb(228, 61, 37); opacity: 1;"/><path class="line chart-data-object legend-index-3" d="M1220,124.1L1163.2333653336864,128.9L1106.4667306673728,127.4L1049.7000960010594,124.39999999999999L992.7779363082626,125.29999999999998L936.0113016419491,119.89999999999999L879.2446669756355,128.6L822.4780323093221,121.69999999999999L765.5558726165254,127.7L708.7892379502118,127.99999999999999L652.0226032838983,131.6L595.2559686175848,131.3L538.3338089247882,127.99999999999999L481.56717425847455,137.6L424.80053959216104,129.8L368.0339049258475,134.9L311.1117452330509,136.7L254.34511056673728,139.7L197.57847590042374,142.1L140.81184123411018,143.9L83.88968154131356,138.20000000000002L27.123046875,140.9" part="series series-variable-Hancock County" style="fill: none; stroke-width: 2.5px; stroke: rgb(246, 128, 75); opacity: 1;"/><path class="line chart-data-object legend-index-4" d="M1220,82.10000000000001L1163.2333653336864,85.4L1106.4667306673728,91.1L1049.7000960010594,94.69999999999999L992.7779363082626,86.89999999999999L936.0113016419491,89.9L879.2446669756355,88.1L822.4780323093221,97.7L765.5558726165254,98L708.7892379502118,104L652.0226032838983,101.00000000000001L595.2559686175848,103.10000000000001L538.3338089247882,106.7L481.56717425847455,106.40000000000002L424.80053959216104,113.9L368.0339049258475,108.2L311.1117452330509,113.9L254.34511056673728,109.1L197.57847590042374,116L140.81184123411018,119.59999999999998L83.88968154131356,120.8L27.123046875,117.5" part="series series-variable-Hendricks County" style="fill: none; stroke-width: 2.5px; stroke: rgb(252, 178, 103); opacity: 1;"/><path class="line chart-data-object legend-index-5" d="M1220,85.4L1163.2333653336864,75.2L1106.4667306673728,87.2L1049.7000960010594,89.3L992.7779363082626,87.2L936.0113016419491,85.69999999999999L879.2446669756355,83.30000000000001L822.4780323093221,97.4L765.5558726165254,96.2L708.7892379502118,95L652.0226032838983,96.80000000000001L595.2559686175848,101.00000000000001L538.3338089247882,96.2L481.56717425847455,104L424.80053959216104,94.69999999999999L368.0339049258475,98.30000000000001L311.1117452330509,102.50000000000001L254.34511056673728,107.60000000000002L197.57847590042374,104.9L140.81184123411018,107.90000000000002L83.88968154131356,104.30000000000001L27.123046875,103.4" part="series series-variable-Johnson County" style="fill: none; stroke-width: 2.5px; stroke: rgb(236, 209, 132); opacity: 1;"/><path class="line chart-data-object legend-index-6" d="M1220,121.69999999999999L1163.2333653336864,123.79999999999998L1106.4667306673728,122.89999999999999L1049.7000960010594,123.5L992.7779363082626,129.5L936.0113016419491,116.9L879.2446669756355,129.2L822.4780323093221,118.10000000000001L765.5558726165254,121.09999999999998L708.7892379502118,125.89999999999999L652.0226032838983,129.2L595.2559686175848,128.9L538.3338089247882,127.7L481.56717425847455,124.99999999999999L424.80053959216104,131L368.0339049258475,134L311.1117452330509,129.5L254.34511056673728,132.5L197.57847590042374,128.29999999999998L140.81184123411018,129.8L83.88968154131356,133.1L27.123046875,133.70000000000002" part="series series-variable-Morgan County" style="fill: none; stroke-width: 2.5px; stroke: rgb(157, 202, 156); opacity: 1;"/><path class="line chart-data-object legend-index-7" d="M1220,61.7L1163.2333653336864,64.10000000000001L1106.4667306673728,68.89999999999999L1049.7000960010594,63.2L992.7779363082626,75.8L936.0113016419491,67.69999999999999L879.2446669756355,71.3L822.4780323093221,70.69999999999999L765.5558726165254,74.9L708.7892379502118,73.39999999999999L652.0226032838983,84.80000000000001L595.2559686175848,67.39999999999999L538.3338089247882,71.6L481.56717425847455,76.1L424.80053959216104,84.2L368.0339049258475,87.79999999999998L311.1117452330509,74L254.34511056673728,80.3L197.57847590042374,86.29999999999998L140.81184123411018,86L83.88968154131356,91.4L27.123046875,82.4" part="series series-variable-Porter County" style="fill: none; stroke-width: 2.5px; stroke: rgb(83, 167, 175); opacity: 1;"/><path class="line chart-data-object legend-index-8" d="M1220,135.8L1163.2333653336864,139.7L1106.4667306673728,140.9L1049.7000960010594,136.10000000000002L992.7779363082626,131.3L936.0113016419491,140.9L879.2446669756355,145.1L822.4780323093221,143L765.5558726165254,143.3L708.7892379502118,140.6L652.0226032838983,133.1L595.2559686175848,145.4L538.3338089247882,143.3L481.56717425847455,140.9L424.80053959216104,143.9L368.0339049258475,142.4L311.1117452330509,141.50000000000003L254.34511056673728,139.4L197.57847590042374,145.1L140.81184123411018,139.7L83.88968154131356,141.8L27.123046875,147.8" part="series series-variable-Shelby County" style="fill: none; stroke-width: 2.5px; stroke: rgb(67, 123, 179); opacity: 1;"/><path class="line chart-data-object legend-index-9" d="M1220,128.9L1163.2333653336864,132.8L1106.4667306673728,129.2L1049.7000960010594,137.3L992.7779363082626,134.6L936.0113016419491,133.70000000000002L879.2446669756355,134.9L822.4780323093221,133.70000000000002L765.5558726165254,138.8L708.7892379502118,133.1L652.0226032838983,140.3L595.2559686175848,135.2L538.3338089247882,136.10000000000002L481.56717425847455,137.6L424.80053959216104,134.29999999999998L368.0339049258475,135.8L311.1117452330509,141.20000000000002L254.34511056673728,128.9L197.57847590042374,138.5L140.81184123411018,141.50000000000003L83.88968154131356,138.8L27.123046875,145.4" part="series series-variable-Warrick County" style="fill: none; stroke-width: 2.5px; stroke: rgb(94, 79, 162); opacity: 1;"/></g></svg></g></svg></svg></g><g transform="translate(10, 243.10000610351562)"><text style="fill: rgb(59, 59, 59); font-family: sans-serif; font-size: 0.7rem;"><title>Data from wonder.cdc.gov via Data Commons</title><tspan x="0" dy="0em">Data from wonder.cdc.gov via Data Commons</tspan></text></g></svg>